# xmcd CD database file
#
# Track frame offsets:
#	150
#	14829
#	26634
#	40622
#	53689
#	68016
#	79883
#	91781
#	104379
#	117382
#	137969
#	151903
#	162467
#	174045
#	188603
#	201904
#	214570
#	226702
#	240653
#	252801
#
# Disc length: 3535 seconds
#
# Revision: 2
# Processed by: cddbd v1.4PL0 Copyright (c) Steve Scherf et al.
# Submitted via: CDex 1.50Beta7
#
DISCID=fd0dcd14
DTITLE=Freddie King - Texas Sensation
DYEAR=1900
DGENRE=Blues
TTITLE0=You've Got To Love Her With A Feeling
TTITLE1=Hideaway
TTITLE2=Have You Ever Loved A Woman
TTITLE3=Sen-Sa-Shun
TTITLE4=Look Ma, I'm Cryin'
TTITLE5=San-Ho-Zay
TTITLE6=I'm Tore Down
TTITLE7=Driving Sideways
TTITLE8=Takin' Care Of Business
TTITLE9=Someday After A While
TTITLE10=Side ed
TTITLE11=You Know That You Love Me
TTITLE12=Teardrops On Your Letter
TTITLE13=The Stumble
TTITLE14=She Put The Whammy On Me
TTITLE15=Lonesome Whistle Blues
TTITLE16=High Rise
TTITLE17=It's Too Bad
TTITLE18=The Welfare
TTITLE19=Double-Eyed Whammy
EXTD=
EXTT0=
EXTT1=
EXTT2=
EXTT3=
EXTT4=
EXTT5=
EXTT6=
EXTT7=
EXTT8=
EXTT9=
EXTT10=
EXTT11=
EXTT12=
EXTT13=
EXTT14=
EXTT15=
EXTT16=
EXTT17=
EXTT18=
EXTT19=
PLAYORDER=
